Fungal-Grow 1000 Thickness 1000.ufo
<glyph name="nine" format="1">
  <advance width="1303"/>
  <unicode hex="0039"/>
  <outline>
    <contour>
      <point x="225" y="31" type="qcurve"/>
      <point x="225" y="215" type="line"/>
      <point x="301" y="179"/>
      <point x="457" y="141"/>
      <point x="532" y="141" type="qcurve" smooth="yes"/>
      <point x="732" y="141"/>
      <point x="943" y="410"/>
      <point x="958" y="684" type="qcurve"/>
      <point x="900" y="598"/>
      <point x="722" y="506"/>
      <point x="614" y="506" type="qcurve" smooth="yes"/>
      <point x="390" y="506"/>
      <point x="129" y="777"/>
      <point x="129" y="1012" type="qcurve" smooth="yes"/>
      <point x="129" y="1242"/>
      <point x="401" y="1520"/>
      <point x="627" y="1520" type="qcurve" smooth="yes"/>
      <point x="886" y="1520"/>
      <point x="1159" y="1123"/>
      <point x="1159" y="745" type="qcurve" smooth="yes"/>
      <point x="1159" y="392"/>
      <point x="824" y="-29"/>
      <point x="541" y="-29" type="qcurve" smooth="yes"/>
      <point x="465" y="-29"/>
      <point x="309" y="1"/>
    </contour>
    <contour>
      <point x="627" y="664" type="qcurve" smooth="yes"/>
      <point x="763" y="664"/>
      <point x="922" y="850"/>
      <point x="922" y="1012" type="qcurve" smooth="yes"/>
      <point x="922" y="1173"/>
      <point x="763" y="1360"/>
      <point x="627" y="1360" type="qcurve" smooth="yes"/>
      <point x="491" y="1360"/>
      <point x="332" y="1173"/>
      <point x="332" y="1012" type="qcurve" smooth="yes"/>
      <point x="332" y="850"/>
      <point x="491" y="664"/>
    </contour>
    <component base="blob1" xScale="0" xyScale="-1.2886" yScale="0" yxScale="-1.2886" xOffset="-39" yOffset="211"/>
    <component base="blob2" xScale="0" xyScale="-1" yScale="0" yxScale="-1" xOffset="-561" yOffset="329"/>
    <component base="blob3" xScale="0" xyScale="-1" yScale="0" yxScale="-1" xOffset="-833" yOffset="686"/>
    <component base="blob4" xScale="0" xyScale="-0.8783" yScale="0" yxScale="-0.8783" xOffset="-802" yOffset="1128"/>
    <component base="blob5" xScale="0" xyScale="-1" yScale="0" yxScale="-1" xOffset="-822" yOffset="1565"/>
    <component base="blob6" xScale="0" xyScale="-1.1539" yScale="0" yxScale="-1.1539" xOffset="-916" yOffset="2039"/>
    <component base="blob7" xScale="0" xyScale="-0.9753" yScale="0" yxScale="-0.9753" xOffset="-1375" yOffset="2278"/>
    <component base="blob8" xScale="0" xyScale="-0.7047" yScale="0" yxScale="-0.7047" xOffset="-1682" yOffset="2482"/>
    <component base="blob9" xScale="0" xyScale="-0.4869" yScale="0" yxScale="-0.4869" xOffset="-1917" yOffset="2543"/>
    <component base="blob2" xScale="0" xyScale="-1" yScale="0" yxScale="-1" xOffset="480" yOffset="90"/>
    <component base="blob3" xScale="0" xyScale="-1" yScale="0" yxScale="-1" xOffset="914" yOffset="250"/>
    <component base="blob3" xScale="0" xyScale="-1" yScale="0" yxScale="-1" xOffset="1054" yOffset="706"/>
    <component base="blob4" xScale="0" xyScale="-0.8783" yScale="0" yxScale="-0.8783" xOffset="913" yOffset="1111"/>
    <component base="blob5" xScale="0" xyScale="-1" yScale="0" yxScale="-1" xOffset="527" yOffset="1411"/>
    <component base="blob6" xScale="0" xyScale="-0.9303" yScale="0" yxScale="-0.9303" xOffset="396" yOffset="996"/>
    <component base="blob7" xScale="0" xyScale="-0.9753" yScale="0" yxScale="-0.9753" xOffset="675" yOffset="777"/>
    <component base="blob8" xScale="0" xyScale="-0.7047" yScale="0" yxScale="-0.7047" xOffset="728" yOffset="474"/>
    <component base="blob9" xScale="0" xyScale="-0.4869" yScale="0" yxScale="-0.4869" xOffset="605" yOffset="287"/>
    <contour>
      <point x="651" y="1520" type="move" name="above"/>
    </contour>
    <contour>
      <point x="651" y="0" type="move" name="below"/>
    </contour>
  </outline>
</glyph>
<glyph name="B" format="1">
  <advance width="1405"/>
  <unicode hex="0042"/>
  <outline>
    <contour>
      <point x="403" y="713" type="line"/>
      <point x="403" y="166" type="line"/>
      <point x="727" y="166" type="line" smooth="yes"/>
      <point x="944.333" y="166"/>
      <point x="1047" y="254.667"/>
      <point x="1047" y="440" type="curve" smooth="yes"/>
      <point x="1047" y="626.667"/>
      <point x="944.333" y="713"/>
      <point x="727" y="713" type="curve" smooth="yes"/>
      <point x="403" y="713" type="line"/>
    </contour>
    <contour>
      <point x="403" y="1327" type="line"/>
      <point x="403" y="877" type="line"/>
      <point x="702" y="877" type="line" smooth="yes"/>
      <point x="899.333" y="877"/>
      <point x="995" y="950"/>
      <point x="995" y="1102" type="curve" smooth="yes"/>
      <point x="995" y="1252.667"/>
      <point x="899.333" y="1327"/>
      <point x="702" y="1327" type="curve" smooth="yes"/>
      <point x="403" y="1327" type="line"/>
    </contour>
    <contour>
      <point x="201" y="1493" type="line"/>
      <point x="717" y="1493" type="line" smooth="yes"/>
      <point x="1025" y="1493"/>
      <point x="1198" y="1360"/>
      <point x="1198" y="1124" type="curve" smooth="yes"/>
      <point x="1198" y="941.333"/>
      <point x="1111.333" y="831.667"/>
      <point x="946" y="805" type="curve"/>
      <point x="1144.667" y="762.333"/>
      <point x="1260" y="620.667"/>
      <point x="1260" y="418" type="curve" smooth="yes"/>
      <point x="1260" y="151.333"/>
      <point x="1071.667" y="0"/>
      <point x="737" y="0" type="curve" smooth="yes"/>
      <point x="201" y="0" type="line"/>
      <point x="201" y="1493" type="line"/>
    </contour>
    <component base="blob1" xScale="0" xyScale="1.2886" yScale="0" yxScale="-1.2886" xOffset="154" yOffset="705"/>
    <component base="blob2" xScale="0" xyScale="1" yScale="0" yxScale="-1" xOffset="-335" yOffset="571"/>
    <component base="blob3" xScale="0" xyScale="1" yScale="0" yxScale="-1" xOffset="-749" yOffset="345"/>
    <component base="blob4" xScale="0" xyScale="0.8783" yScale="0" yxScale="-0.8783" xOffset="-1184" yOffset="260"/>
    <component base="blob5" xScale="0" xyScale="1" yScale="0" yxScale="-1" xOffset="-1619" yOffset="132"/>
    <component base="blob6" xScale="0" xyScale="1.1539" yScale="0" yxScale="-1.1539" xOffset="-1966" yOffset="-265"/>
    <component base="blob7" xScale="0" xyScale="0.9753" yScale="0" yxScale="-0.9753" xOffset="-2276" yOffset="-682"/>
    <component base="blob8" xScale="0" xyScale="0.7047" yScale="0" yxScale="-0.7047" xOffset="-2482" yOffset="-1028"/>
    <component base="blob9" xScale="0" xyScale="0.4869" yScale="0" yxScale="-0.4869" xOffset="-2452" yOffset="-1306"/>
    <component base="blob2" xScale="0" xyScale="1" yScale="0" yxScale="-1" xOffset="668" yOffset="698"/>
    <component base="blob3" xScale="0" xyScale="0.9349" yScale="0" yxScale="-0.9349" xOffset="1109" yOffset="635"/>
    <component base="blob4" xScale="0" xyScale="0.8783" yScale="0" yxScale="-0.8783" xOffset="1128" yOffset="230"/>
    <component base="blob5" xScale="0" xyScale="0.8571" yScale="0" yxScale="-0.8571" xOffset="931" yOffset="-14"/>
    <component base="blob6" xScale="0" xyScale="0.7728" yScale="0" yxScale="-0.7728" xOffset="590" yOffset="31"/>
    <component base="blob3" xScale="0" xyScale="0.9349" yScale="0" yxScale="-0.9349" xOffset="862" yOffset="1092"/>
    <component base="blob4" xScale="0" xyScale="0.8783" yScale="0" yxScale="-0.8783" xOffset="558" yOffset="1354"/>
    <component base="blob5" xScale="0" xyScale="0.661" yScale="0" yxScale="-0.661" xOffset="254" yOffset="1481"/>
    <component base="blob6" xScale="0" xyScale="0.4698" yScale="0" yxScale="-0.4698" xOffset="187" yOffset="1710"/>
    <component base="blob7" xScale="0" xyScale="0.3123" yScale="0" yxScale="-0.3123" xOffset="255" yOffset="1874"/>
    <contour>
      <point x="700" y="1520" type="move" name="above"/>
    </contour>
    <contour>
      <point x="700" y="0" type="move" name="below"/>
    </contour>
    <contour>
      <point x="0" y="1520" type="move" name="half"/>
    </contour>
  </outline>
</glyph>
<glyph name="X" format="1">
  <advance width="1403"/>
  <unicode hex="0058"/>
  <outline>
    <contour>
      <point x="129" y="1493" type="line"/>
      <point x="346" y="1493" type="line"/>
      <point x="717" y="938" type="line"/>
      <point x="1090" y="1493" type="line"/>
      <point x="1307" y="1493" type="line"/>
      <point x="827" y="776" type="line"/>
      <point x="1339" y="0" type="line"/>
      <point x="1122" y="0" type="line"/>
      <point x="702" y="635" type="line"/>
      <point x="279" y="0" type="line"/>
      <point x="61" y="0" type="line"/>
      <point x="594" y="797" type="line"/>
      <point x="129" y="1493" type="line"/>
    </contour>
    <component base="blob1" xScale="0" xyScale="1.2886" yScale="0" yxScale="-1.2886" xOffset="-57" yOffset="-46"/>
    <component base="blob2" xScale="0" xyScale="1.1881" yScale="0" yxScale="-1.1881" xOffset="-558" yOffset="-379"/>
    <component base="blob3" xScale="0" xyScale="1" yScale="0" yxScale="-1" xOffset="-740" yOffset="-901"/>
    <component base="blob4" xScale="0" xyScale="1.0515" yScale="0" yxScale="-1.0515" xOffset="-812" yOffset="-1377"/>
    <component base="blob5" xScale="0" xyScale="1" yScale="0" yxScale="-1" xOffset="-1029" yOffset="-1828"/>
    <component base="blob6" xScale="0" xyScale="1.1539" yScale="0" yxScale="-1.1539" xOffset="-1429" yOffset="-2138"/>
    <component base="blob7" xScale="0" xyScale="0.9753" yScale="0" yxScale="-0.9753" xOffset="-1942" yOffset="-2261"/>
    <component base="blob8" xScale="0" xyScale="0.8835" yScale="0" yxScale="-0.8835" xOffset="-2370" yOffset="-2082"/>
    <component base="blob9" xScale="0" xyScale="0.6783" yScale="0" yxScale="-0.6783" xOffset="-2629" yOffset="-1795"/>
    <component base="blob2" xScale="0" xyScale="1.1881" yScale="0" yxScale="-1.1881" xOffset="449" yOffset="237"/>
    <component base="blob3" xScale="0" xyScale="1" yScale="0" yxScale="-1" xOffset="707" yOffset="673"/>
    <component base="blob4" xScale="0" xyScale="1.0515" yScale="0" yxScale="-1.0515" xOffset="535" yOffset="1156"/>
    <component base="blob5" xScale="0" xyScale="1" yScale="0" yxScale="-1" xOffset="251" yOffset="1570"/>
    <component base="blob6" xScale="0" xyScale="1.1539" yScale="0" yxScale="-1.1539" xOffset="529" yOffset="2012"/>
    <component base="blob7" xScale="0" xyScale="0.9753" yScale="0" yxScale="-0.9753" xOffset="1038" yOffset="2149"/>
    <component base="blob8" xScale="0" xyScale="0.8835" yScale="0" yxScale="-0.8835" xOffset="1453" yOffset="1950"/>
    <component base="blob9" xScale="0" xyScale="0.6783" yScale="0" yxScale="-0.6783" xOffset="1755" yOffset="2130"/>
    <contour>
      <point x="717" y="1520" type="move" name="above"/>
    </contour>
    <contour>
      <point x="717" y="0" type="move" name="below"/>
    </contour>
    <contour>
      <point x="0" y="1520" type="move" name="half"/>
    </contour>
  </outline>
</glyph>
<glyph name="s" format="1">
  <advance width="1067"/>
  <unicode hex="0073"/>
  <outline>
    <contour>
      <point x="907" y="1087" type="curve"/>
      <point x="907" y="1087" type="line"/>
      <point x="907" y="913" type="line"/>
      <point x="803" y="966.333"/>
      <point x="691" y="993"/>
      <point x="571" y="993" type="curve" smooth="yes"/>
      <point x="388.333" y="993"/>
      <point x="297" y="937"/>
      <point x="297" y="825" type="curve" smooth="yes"/>
      <point x="297" y="782.333"/>
      <point x="313.333" y="748.833"/>
      <point x="346" y="724.5" type="curve" smooth="yes"/>
      <point x="378.667" y="700.167"/>
      <point x="444.333" y="677"/>
      <point x="543" y="655" type="curve" smooth="yes"/>
      <point x="606" y="641" type="line" smooth="yes"/>
      <point x="867.333" y="582.333"/>
      <point x="967" y="491.667"/>
      <point x="967" y="309" type="curve" smooth="yes"/>
      <point x="967" y="101"/>
      <point x="792" y="-29"/>
      <point x="504" y="-29" type="curve" smooth="yes"/>
      <point x="384" y="-29"/>
      <point x="255" y="-5.667"/>
      <point x="111" y="41" type="curve"/>
      <point x="111" y="231" type="line"/>
      <point x="247" y="160.333"/>
      <point x="378.667" y="125"/>
      <point x="508" y="125" type="curve" smooth="yes"/>
      <point x="681.333" y="125"/>
      <point x="778" y="187"/>
      <point x="778" y="295" type="curve" smooth="yes"/>
      <point x="778" y="345"/>
      <point x="761" y="382.833"/>
      <point x="727" y="408.5" type="curve" smooth="yes"/>
      <point x="693" y="434.167"/>
      <point x="619.333" y="460.333"/>
      <point x="506" y="487" type="curve" smooth="yes"/>
      <point x="442" y="502" type="line" smooth="yes"/>
      <point x="214" y="550"/>
      <point x="119" y="643.667"/>
      <point x="119" y="817" type="curve" smooth="yes"/>
      <point x="119" y="1027.667"/>
      <point x="274.333" y="1147"/>
      <point x="549" y="1147" type="curve" smooth="yes"/>
      <point x="685" y="1147"/>
      <point x="805.667" y="1127"/>
    </contour>
    <component base="blob1" xScale="1.2886" yScale="-1.2886" xOffset="959" yOffset="168"/>
    <component base="blob2" yScale="-1" xOffset="1232" yOffset="95"/>
    <component base="blob3" xScale="0.8725" yScale="-0.8725" xOffset="1389" yOffset="-58"/>
    <component base="blob4" xScale="0.8953" yScale="-0.8953" xOffset="1594" yOffset="-120"/>
    <component base="blob5" yScale="-1" xOffset="1641" yOffset="-334"/>
    <component base="blob6" xScale="1.1539" yScale="-1.1539" xOffset="1533" yOffset="-587"/>
    <component base="blob7" xScale="0.5898" yScale="-0.5898" xOffset="-701" yOffset="684"/>
    <component base="blob8" xScale="0.7047" yScale="-0.7047" xOffset="1698" yOffset="-888"/>
    <component base="blob9" xScale="0.4869" yScale="-0.4869" xOffset="1842" yOffset="-960"/>
    <component base="blob3" xScale="0.8725" yScale="-0.8725" xOffset="514" yOffset="774"/>
    <component base="blob4" xScale="0.7256" yScale="-0.7256" xOffset="229" yOffset="961"/>
    <component base="blob5" xScale="0.786" yScale="-0.786" xOffset="174" yOffset="1265"/>
    <component base="blob6" xScale="0.9232" yScale="-0.9232" xOffset="-219" yOffset="1270"/>
    <component base="blob6" xScale="0.9362" yScale="-0.9362" xOffset="-523" yOffset="998"/>
    <component base="blob8" xScale="0.7047" yScale="-0.7047" xOffset="-1007" yOffset="603"/>
    <component base="blob9" xScale="0.4869" yScale="-0.4869" xOffset="-1202" yOffset="772"/>
    <contour>
      <point x="551" y="1147" type="move" name="above"/>
    </contour>
    <contour>
      <point x="549" y="0" type="move" name="below"/>
    </contour>
    <contour>
      <point x="558" y="0" type="move" name="cedilla"/>
    </contour>
    <contour>
      <point x="0" y="1520" type="move" name="half"/>
    </contour>
  </outline>
</glyph>
<glyph name="x" format="1">
  <advance width="1212"/>
  <unicode hex="0078"/>
  <outline>
    <contour>
      <point x="1124" y="1120" type="line"/>
      <point x="719" y="575" type="line"/>
      <point x="1145" y="0" type="line"/>
      <point x="928" y="0" type="line"/>
      <point x="602" y="440" type="line"/>
      <point x="276" y="0" type="line"/>
      <point x="59" y="0" type="line"/>
      <point x="494" y="586" type="line"/>
      <point x="96" y="1120" type="line"/>
      <point x="313" y="1120" type="line"/>
      <point x="610" y="721" type="line"/>
      <point x="907" y="1120" type="line"/>
      <point x="1124" y="1120" type="line"/>
    </contour>
    <component base="blob1" xScale="-1.0385" yScale="1.0385" xOffset="243" yOffset="1089"/>
    <component base="blob2" xScale="-1" xOffset="-110" yOffset="1386"/>
    <component base="blob3" xScale="-1" xOffset="-136" yOffset="1844"/>
    <component base="blob4" xScale="-0.8783" yScale="0.8783" xOffset="-399" yOffset="2124"/>
    <component base="blob5" xScale="-1" xOffset="-686" yOffset="2264"/>
    <component base="blob6" xScale="-1.1539" yScale="1.1539" xOffset="-1085" yOffset="2434"/>
    <component base="blob7" xScale="-0.9753" yScale="0.9753" xOffset="-1257" yOffset="2899"/>
    <component base="blob8" xScale="-0.7047" yScale="0.7047" xOffset="-1206" yOffset="3294"/>
    <component base="blob9" xScale="-0.4869" yScale="0.4869" xOffset="-1108" yOffset="3540"/>
    <component base="blob2" xScale="-1" xOffset="571" yOffset="754"/>
    <component base="blob3" xScale="-1" xOffset="1060" yOffset="712"/>
    <component base="blob4" xScale="-0.8783" yScale="0.8783" xOffset="1181" yOffset="264"/>
    <component base="blob4" xScale="-0.8783" yScale="0.8783" xOffset="946" yOffset="-67"/>
    <component base="blob5" xScale="-1" xOffset="545" yOffset="-213"/>
    <component base="blob6" xScale="-0.8633" yScale="0.8633" xOffset="109" yOffset="-317"/>
    <component base="blob7" xScale="-0.7887" yScale="0.7887" xOffset="-142" yOffset="-17"/>
    <component base="blob8" xScale="-0.7047" yScale="0.7047" xOffset="-480" yOffset="108"/>
    <component base="blob9" xScale="-0.4869" yScale="0.4869" xOffset="-735" yOffset="-33"/>
    <contour>
      <point x="610" y="1147" type="move" name="above"/>
    </contour>
    <contour>
      <point x="610" y="0" type="move" name="below"/>
    </contour>
    <contour>
      <point x="0" y="1520" type="move" name="half"/>
    </contour>
  </outline>
</glyph>
<glyph name="dotlessi" format="1">
  <advance width="569"/>
  <unicode hex="0131"/>
  <outline>
    <contour>
      <point x="193" y="1120" type="line"/>
      <point x="377" y="1120" type="line"/>
      <point x="377" y="0" type="line"/>
      <point x="193" y="0" type="line"/>
    </contour>
    <contour>
      <point x="285" y="1147" type="move"/>
    </contour>
    <contour>
      <point x="285" y="1147" type="move" name="above"/>
    </contour>
    <contour>
      <point x="287" y="0" type="move" name="below"/>
    </contour>
    <contour>
      <point x="287" y="0" type="move" name="cedilla"/>
    </contour>
    <contour>
      <point x="0" y="1520" type="move" name="half"/>
    </contour>
    <contour>
      <point x="318" y="0" type="move" name="ogonek"/>
    </contour>
  </outline>
</glyph>
<glyph name="uni032A" format="1">
  <advance width="0"/>
  <unicode hex="032A"/>
  <outline>
    <contour>
      <point x="-233" y="-102" type="line"/>
      <point x="-233" y="-432" type="line"/>
      <point x="-370" y="-432" type="line"/>
      <point x="-370" y="-238" type="line"/>
      <point x="-647" y="-238" type="line"/>
      <point x="-647" y="-432" type="line"/>
      <point x="-784" y="-432" type="line"/>
      <point x="-784" y="-102" type="line"/>
    </contour>
    <contour>
      <point x="-512" y="-1" type="move" name="_Ligature below"/>
    </contour>
    <contour>
      <point x="-512" y="-1" type="move" name="_below"/>
    </contour>
    <contour>
      <point x="-512" y="0" type="move" name="_below-mark"/>
    </contour>
    <contour>
      <point x="-512" y="-481" type="move" name="below-mark"/>
    </contour>
  </outline>
</glyph>
<glyph name="uni032B" format="1">
  <advance width="0"/>
  <unicode hex="032B"/>
  <outline>
    <contour>
      <point x="-514.5" y="-372.974" type="qcurve"/>
      <point x="-574.069" y="-455"/>
      <point x="-690.25" y="-455" type="qcurve" smooth="yes"/>
      <point x="-907.886" y="-455"/>
      <point x="-924.706" y="-173.247" type="qcurve" smooth="yes"/>
      <point x="-924.862" y="-170.636"/>
      <point x="-925" y="-168" type="qcurve" smooth="yes"/>
      <point x="-807.5" y="-168" type="line"/>
      <point x="-794.301" y="-318"/>
      <point x="-690.5" y="-318" type="qcurve" smooth="yes"/>
      <point x="-588.894" y="-318"/>
      <point x="-573.5" y="-168" type="qcurve"/>
      <point x="-455.5" y="-168" type="line"/>
      <point x="-443.642" y="-317.302"/>
      <point x="-339" y="-318" type="qcurve" smooth="yes"/>
      <point x="-237.394" y="-318"/>
      <point x="-222" y="-168" type="qcurve"/>
      <point x="-104" y="-168" type="line"/>
      <point x="-118.983" y="-453.68"/>
      <point x="-338.75" y="-455" type="qcurve" smooth="yes"/>
      <point x="-454.931" y="-455"/>
    </contour>
    <contour>
      <point x="-512" y="-1" type="move" name="_Ligature below"/>
    </contour>
    <contour>
      <point x="-512" y="-1" type="move" name="_below"/>
    </contour>
    <contour>
      <point x="-512" y="0" type="move" name="_below-mark"/>
    </contour>
    <contour>
      <point x="-512" y="-453" type="move" name="below-mark"/>
    </contour>
  </outline>
</glyph>
<glyph name="uni0332" format="1">
  <advance width="0"/>
  <unicode hex="0332"/>
  <outline>
    <component base="underscore" xOffset="-1024"/>
    <contour>
      <point x="-512" y="-1" type="move" name="_Ligature below"/>
    </contour>
    <contour>
      <point x="-512" y="-1" type="move" name="_below"/>
    </contour>
    <contour>
      <point x="-512" y="-1" type="move" name="_below-mark"/>
    </contour>
  </outline>
</glyph>
<glyph name="uni033A" format="1">
  <advance width="0"/>
  <unicode hex="033A"/>
  <outline>
    <contour>
      <point x="-783" y="-421" type="line"/>
      <point x="-783" y="-91" type="line"/>
      <point x="-646" y="-91" type="line"/>
      <point x="-646" y="-285" type="line"/>
      <point x="-369" y="-285" type="line"/>
      <point x="-369" y="-91" type="line"/>
      <point x="-232" y="-91" type="line"/>
      <point x="-232" y="-421" type="line"/>
    </contour>
    <contour>
      <point x="-512" y="-1" type="move" name="_Ligature below"/>
    </contour>
    <contour>
      <point x="-512" y="-1" type="move" name="_below"/>
    </contour>
    <contour>
      <point x="-512" y="0" type="move" name="_below-mark"/>
    </contour>
    <contour>
      <point x="-512" y="-481" type="move" name="below-mark"/>
    </contour>
  </outline>
</glyph>
<glyph name="uni0443" format="1">
  <advance width="1212"/>
  <unicode hex="0443"/>
  <outline>
    <component base="y"/>
    <contour>
      <point x="608" y="1147" type="move" name="above"/>
    </contour>
  </outline>
</glyph>
<glyph name="uni0455" format="1">
  <advance width="1067"/>
  <unicode hex="0455"/>
  <outline>
    <component base="s"/>
    <contour>
      <point x="551" y="1147" type="move" name="above"/>
    </contour>
  </outline>
</glyph>
<glyph name="uni04A1" format="1">
  <advance width="1703"/>
  <unicode hex="04A1"/>
  <outline>
    <contour>
      <point x="42" y="1120" type="line"/>
      <point x="610" y="1120" type="line"/>
      <point x="610" y="594" type="line"/>
      <point x="1129" y="1120" type="line"/>
      <point x="1355" y="1120" type="line"/>
      <point x="927" y="687" type="line"/>
      <point x="1410" y="0" type="line"/>
      <point x="1204" y="0" type="line"/>
      <point x="807" y="565" type="line"/>
      <point x="610" y="365" type="line"/>
      <point x="610" y="0" type="line"/>
      <point x="427" y="0" type="line"/>
      <point x="427" y="966" type="line"/>
      <point x="42" y="966" type="line"/>
    </contour>
    <contour>
      <point x="869" y="1147" type="move" name="above"/>
    </contour>
  </outline>
</glyph>
<glyph name="uni05B7" format="1">
  <advance width="0"/>
  <unicode hex="05B7"/>
  <outline>
    <contour>
      <point x="355" y="-175" type="line"/>
      <point x="955" y="-175" type="line"/>
      <point x="955" y="-325" type="line"/>
      <point x="355" y="-325" type="line"/>
    </contour>
    <contour>
      <point x="655" y="0" type="move" name="_Ligature rtl-below"/>
    </contour>
    <contour>
      <point x="655" y="0" type="move" name="_rtl-below"/>
    </contour>
    <contour>
      <point x="655" y="0" type="move" name="_rtl-below-mark"/>
    </contour>
  </outline>
</glyph>
<glyph name="uni05D1" format="1">
  <advance width="1184"/>
  <unicode hex="05D1"/>
  <outline>
    <contour>
      <point x="744" y="143" type="line"/>
      <point x="744" y="606" type="line" smooth="yes"/>
      <point x="744" y="681"/>
      <point x="733" y="780"/>
      <point x="695" y="882"/>
      <point x="626" y="940"/>
      <point x="505" y="977"/>
      <point x="418" y="977" type="qcurve" smooth="yes"/>
      <point x="88" y="977" type="line"/>
      <point x="88" y="1120" type="line"/>
      <point x="418" y="1120" type="line" smooth="yes"/>
      <point x="541" y="1120"/>
      <point x="718" y="1074"/>
      <point x="834" y="989"/>
      <point x="903" y="850"/>
      <point x="930" y="684"/>
      <point x="930" y="570" type="qcurve" smooth="yes"/>
      <point x="930" y="143" type="line"/>
      <point x="1096" y="143" type="line"/>
      <point x="1096" y="0" type="line"/>
      <point x="88" y="0" type="line"/>
      <point x="88" y="143" type="line"/>
    </contour>
    <contour>
      <point x="594" y="1120" type="move" name="rtl-above"/>
    </contour>
    <contour>
      <point x="597" y="0" type="move" name="rtl-below"/>
    </contour>
    <contour>
      <point x="465" y="560" type="move" name="rtl-inside"/>
    </contour>
  </outline>
</glyph>
<glyph name="uni069D" format="1">
  <advance width="2476"/>
  <unicode hex="069D"/>
  <outline>
    <component base="uni0635"/>
    <component base="arabic_2dots" xOffset="1400" yOffset="-350"/>
    <contour>
      <point x="600" y="800" type="move" name="rtl-above"/>
    </contour>
    <contour>
      <point x="600" y="-600" type="move" name="rtl-below"/>
    </contour>
  </outline>
</glyph>
<glyph name="uniFB5B" format="1">
  <advance width="2011"/>
  <unicode hex="FB5B"/>
  <outline>
    <component base="arabic_4dots" xOffset="700" yOffset="-250"/>
    <component base="uni066E.fina"/>
    <contour>
      <point x="900" y="1000" type="move" name="rtl-above"/>
    </contour>
    <contour>
      <point x="900" y="-600" type="move" name="rtl-below"/>
    </contour>
  </outline>
</glyph>
<glyph name="uniFB91" format="1">
  <advance width="1131"/>
  <unicode hex="FB91"/>
  <outline>
    <component base="uniFEDC"/>
    <contour>
      <point x="250" y="1550" type="move" name="rtl-above"/>
    </contour>
    <contour>
      <point x="300" y="-150" type="move" name="rtl-below"/>
    </contour>
  </outline>
</glyph>
<glyph name="uniFBE4" format="1">
  <advance width="1603"/>
  <unicode hex="FBE4"/>
  <outline>
    <component base="uni0649"/>
    <component base="arabic_2dots_a" xOffset="650" yOffset="-520"/>
    <contour>
      <point x="500" y="750" type="move" name="rtl-above"/>
    </contour>
    <contour>
      <point x="725" y="-870" type="move" name="rtl-below"/>
    </contour>
  </outline>
</glyph>
<glyph name="uniFE89" format="1">
  <advance width="1603"/>
  <unicode hex="FE89"/>
  <outline>
    <component base="uni0654" xOffset="-12" yOffset="-450"/>
    <component base="uni0649"/>
    <contour>
      <point x="500" y="1300" type="move" name="rtl-above"/>
    </contour>
    <contour>
      <point x="700" y="-400" type="move" name="rtl-below"/>
    </contour>
  </outline>
</glyph>
<glyph name="uniFE8B" format="1">
  <advance width="570"/>
  <unicode hex="FE8B"/>
  <outline>
    <component base="uniFBE8"/>
    <component base="uni0654" xOffset="-213" yOffset="-400"/>
    <contour>
      <point x="299" y="1350" type="move" name="rtl-above"/>
    </contour>
    <contour>
      <point x="299" y="-100" type="move" name="rtl-below"/>
    </contour>
  </outline>
</glyph>
<glyph name="uniFEC6" format="1">
  <advance width="1944"/>
  <unicode hex="FEC6"/>
  <outline>
    <component base="uniFEC2"/>
    <component base="arabic_dot" xOffset="975" yOffset="850"/>
    <contour>
      <point x="603" y="1650" type="move" name="rtl-above"/>
    </contour>
    <contour>
      <point x="603" y="-150" type="move" name="rtl-below"/>
    </contour>
  </outline>
</glyph>
<glyph name="uniFED5" format="1">
  <advance width="1589"/>
  <unicode hex="FED5"/>
  <outline>
    <component base="arabic_2dots" xOffset="850" yOffset="1150"/>
    <component base="uni066F"/>
    <contour>
      <point x="500" y="1100" type="move" name="rtl-above"/>
    </contour>
    <contour>
      <point x="700" y="-550" type="move" name="rtl-below"/>
    </contour>
  </outline>
</glyph>
<glyph name="uni068A.fina" format="1">
  <advance width="1075"/>
  <outline>
    <component base="arabic_dot" xOffset="425" yOffset="-350"/>
    <component base="uniFEAA"/>
    <contour>
      <point x="400" y="1000" type="move" name="rtl-above"/>
    </contour>
    <contour>
      <point x="500" y="-400" type="move" name="rtl-below"/>
    </contour>
  </outline>
</glyph>
<glyph name="uni069D.medi" format="1">
  <advance width="1776"/>
  <outline>
    <component base="uniFEBC"/>
    <component base="arabic_2dots" xOffset="600" yOffset="-350"/>
    <contour>
      <point x="550" y="800" type="move" name="rtl-above"/>
    </contour>
    <contour>
      <point x="800" y="-400" type="move" name="rtl-below"/>
    </contour>
  </outline>
</glyph>
<glyph name="uni06A8.init" format="1">
  <advance width="979"/>
  <outline>
    <component base="uni066F.init"/>
    <component base="arabic_3dots" xOffset="300" yOffset="1150"/>
    <contour>
      <point x="500" y="1600" type="move" name="rtl-above"/>
    </contour>
    <contour>
      <point x="500" y="-150" type="move" name="rtl-below"/>
    </contour>
  </outline>
</glyph>
<glyph name="uni06AB.medi" format="1">
  <advance width="1131"/>
  <outline>
    <component base="uniFEDC"/>
    <component base="arabic_ring" xOffset="500" yOffset="900"/>
    <contour>
      <point x="250" y="1550" type="move" name="rtl-above"/>
    </contour>
    <contour>
      <point x="300" y="-150" type="move" name="rtl-below"/>
    </contour>
  </outline>
</glyph>
